<?xml version="1.0" standalone="no"?>
<!DOCTYPE svg PUBLIC "-//W3C//DTD SVG 20010904//EN"
 "http://www.w3.org/TR/2001/REC-SVG-20010904/DTD/svg10.dtd">
<svg version="1.0" xmlns="http://www.w3.org/2000/svg"
 width="192.000000pt" height="192.000000pt" viewBox="0 0 192.000000 192.000000"
 preserveAspectRatio="xMidYMid meet">
<metadata>
Created by potrace 1.11, written by Peter Selinger 2001-2013
</metadata>
<g transform="translate(0.000000,192.000000) scale(0.100000,-0.100000)"
fill="#000000" stroke="none">
<path d="M664 1538 c-111 -59 -217 -171 -271 -288 -18 -38 -42 -120 -49 -165
-3 -22 -8 -43 -10 -46 -6 -11 27 -14 139 -14 l109 0 23 73 c95 300 468 358
657 102 27 -38 58 -117 58 -150 0 -23 -7 -22 138 -24 l112 -1 0 32 c0 51 -27
142 -66 222 -27 54 -57 95 -115 152 -44 44 -86 79 -94 79 -8 0 -15 4 -15 8 0
4 -13 13 -29 19 -23 8 -37 7 -68 -7 -108 -48 -301 -52 -429 -7 -52 18 -76 22
-90 15z m50 -36 c3 -5 31 -14 63 -22 32 -7 72 -16 88 -20 71 -16 241 3 328 37
38 15 38 15 93 -22 119 -82 212 -218 240 -350 11 -53 12 -65 6 -66 -11 -1
-134 -1 -158 0 -16 1 -23 12 -33 50 -29 116 -134 224 -256 266 -78 26 -196 24
-271 -7 -98 -39 -214 -144 -214 -193 0 -8 -4 -15 -8 -15 -5 0 -14 -22 -21 -50
-10 -37 -18 -50 -32 -51 -78 -3 -148 -1 -156 4 -19 12 55 237 78 237 5 0 9 6
9 14 0 12 105 125 141 152 49 36 93 51 103 36z"/>
<path d="M343 953 c-8 -20 4 -88 28 -159 21 -64 76 -161 119 -210 32 -37 124
-114 135 -114 5 0 16 -7 25 -15 21 -19 144 -65 194 -72 264 -37 491 62 634
277 42 63 89 195 94 260 l3 45 -124 0 c-102 0 -125 -3 -127 -15 -4 -17 -7 -32
-19 -75 -13 -50 -55 -113 -102 -155 -116 -102 -265 -124 -403 -59 -104 49
-174 134 -204 252 l-13 52 -118 1 c-90 0 -118 -2 -122 -13z"/>
</g>
</svg>
